#N canvas 215 57 749 542 24;
#X msg 294 79 print;
#X obj 229 128 hid;
#X msg 232 42 open 4;
#X obj 176 75 tgl 15 0 empty empty empty 17 7 0 10 -262144 -1 -1 1
1;
#X obj 75 185 route key;
#X obj 74 247 unpack;
#X floatatom 149 322 5 0 0 0 - - -;
#X obj 24 321 osc~ 300;
#X obj 57 378 *~;
#X obj 74 449 dac~;
#X obj 231 170 route abs;
#X floatatom 235 262 5 0 0 0 - - -;
#X obj 46 59 print;
#X obj 233 215 route abs_x;
#X obj 237 308 * 2;
#X obj 477 220 route hatswitch;
#X floatatom 500 308 5 0 0 0 - - -;
#X obj 501 403 mtof;
#X obj 487 347 + 60;
#X connect 0 0 1 0;
#X connect 1 0 10 0;
#X connect 1 0 12 0;
#X connect 1 0 4 0;
#X connect 2 0 1 0;
#X connect 3 0 1 0;
#X connect 4 0 5 0;
#X connect 5 1 6 0;
#X connect 6 0 8 1;
#X connect 7 0 8 0;
#X connect 8 0 9 0;
#X connect 10 0 13 0;
#X connect 10 0 15 0;
#X connect 11 0 14 0;
#X connect 13 0 11 0;
#X connect 14 0 7 0;
#X connect 15 0 16 0;
#X connect 16 0 18 0;
#X connect 17 0 7 0;
#X connect 18 0 17 0;
