#N canvas 521 41 899 635 10;
#X msg 304 89 print;
#X obj 239 138 hid;
#X msg 242 52 open 4;
#X obj 186 85 tgl 15 0 empty empty empty 17 7 0 10 -262144 -1 -1 1
1;
#X obj 241 192 route key;
#X obj 138 184 print;
#X obj 109 261 route btn_0 btn_1 btn_2 btn_3;
#X floatatom 605 387 5 0 0 0 - - -;
#X obj 480 386 osc~ 300;
#X obj 513 443 *~;
#X obj 513 476 dac~;
#X msg 84 335 60;
#X msg 127 333 64;
#X msg 171 333 67;
#X msg 218 332 71;
#X obj 130 404 mtof;
#X connect 0 0 1 0;
#X connect 1 0 4 0;
#X connect 1 0 5 0;
#X connect 2 0 1 0;
#X connect 3 0 1 0;
#X connect 3 0 5 0;
#X connect 4 0 6 0;
#X connect 6 0 7 0;
#X connect 6 0 11 0;
#X connect 6 1 7 0;
#X connect 6 1 12 0;
#X connect 6 2 7 0;
#X connect 6 2 13 0;
#X connect 6 3 7 0;
#X connect 6 3 14 0;
#X connect 7 0 9 1;
#X connect 8 0 9 0;
#X connect 9 0 10 0;
#X connect 11 0 15 0;
#X connect 12 0 15 0;
#X connect 13 0 15 0;
#X connect 14 0 15 0;
#X connect 15 0 8 0;
